<?xml version="1.0" encoding="utf-8"?>
<!-- Generator: Adobe Illustrator 23.0.6, SVG Export Plug-In . SVG Version: 6.00 Build 0)  -->
<svg version="1.1" xmlns="http://www.w3.org/2000/svg" xmlns:xlink="http://www.w3.org/1999/xlink" x="0px" y="0px"
	 viewBox="0 0 100 100" style="enable-background:new 0 0 100 100;" xml:space="preserve">
<style type="text/css">
	.st0{display:none;}
	.st1{display:inline;fill:#5B6F6D;}
	.st2{display:inline;}
	.st3{fill:#5B6F6D;}
	.st4{fill-rule:evenodd;clip-rule:evenodd;fill:#5B6F6D;}
	.st5{display:inline;fill-rule:evenodd;clip-rule:evenodd;fill:#5B6F6D;}
	.st6{fill-rule:evenodd;clip-rule:evenodd;fill:none;stroke:#5B6F6D;stroke-width:0.5;stroke-miterlimit:10;}
	.st7{fill-rule:evenodd;clip-rule:evenodd;fill:#FFFFFF;}
	.st8{display:inline;fill-rule:evenodd;clip-rule:evenodd;fill:none;stroke:#5B6F6D;stroke-width:0.5;stroke-miterlimit:10;}
	.st9{display:inline;fill-rule:evenodd;clip-rule:evenodd;fill:#FFFFFF;}
	.st10{fill:none;}
	.st11{fill:none;stroke:#5B6F6D;stroke-miterlimit:10;}
	.st12{fill:#A20000;}
	.st13{fill:#90A39D;}
	.st14{fill:#FFFFFF;}
	.st15{fill:none;stroke:#FFFFFF;stroke-miterlimit:10;}
</style>
<g id="Calque_1" class="st0">
	<path class="st1" d="M50,0C22.4,0,0,22.4,0,50c0,27.6,22.4,50,50,50s50-22.4,50-50C100,22.4,77.6,0,50,0z M50,93.6
		C25.9,93.6,6.4,74.1,6.4,50C6.4,25.9,25.9,6.4,50,6.4c24.1,0,43.6,19.6,43.6,43.6C93.6,74.1,74.1,93.6,50,93.6z"/>
	<path class="st1" d="M50,9C27.4,9,9,27.4,9,50c0,22.6,18.4,41,41,41c22.6,0,41-18.4,41-41C91,27.4,72.6,9,50,9z M40,65.6l-6.9,3.8
		l0.1-7.9c-7.1-6.4-8.9-17.1-3.8-25.6c5.8-9.6,18.3-12.7,27.9-6.9c4.7,2.8,7.9,7.3,9.2,12.2c-3.1-1.4-6.7-1.8-10.2-0.9
		C47.9,42.5,42.7,51,44.8,59.5c0.7,2.8,2.1,5.2,3.9,7.2C45.8,67,42.9,66.6,40,65.6z M66.2,68.7L64.7,74l-3.8-3.9
		c-6.6,0.3-12.7-4-14.4-10.7c-1.9-7.6,2.7-15.2,10.3-17.1C64.4,40.4,72,45,73.9,52.6C75.5,59.2,72.2,65.9,66.2,68.7z"/>
</g>
<g id="Calque_2" class="st0">
	<path class="st1" d="M50,0C22.4,0,0,22.4,0,50c0,27.6,22.4,50,50,50s50-22.4,50-50C100,22.4,77.6,0,50,0z M50,93.6
		C25.9,93.6,6.4,74.1,6.4,50C6.4,25.9,25.9,6.4,50,6.4c24.1,0,43.6,19.6,43.6,43.6C93.6,74.1,74.1,93.6,50,93.6z"/>
	<path class="st1" d="M50,9C27.4,9,9,27.4,9,50c0,22.6,18.4,41,41,41c22.6,0,41-18.4,41-41C91,27.4,72.6,9,50,9z M36.5,55.8
		C35.3,57.9,32.4,60,29,60c-4.8,0-8.7-4.4-8.7-9.8s3.9-9.8,8.7-9.8c3.4,0,6.4,2.2,7.5,4.3l0.6,1.3h-2l-0.3-0.4
		c-0.8-1.6-3.2-3.3-5.8-3.3c-3.8,0-6.9,3.6-6.9,8s3.1,8,6.9,8c2.7,0,5-1.7,5.9-3.3l0.3-0.5h2.1L36.5,55.8z M49.5,60
		c-4.8,0-8.7-4.4-8.7-9.8c0-5.4,3.9-9.9,8.8-9.8c3.4,0,6.4,2.2,7.4,4.2l0.6,1.3h-2l-0.3-0.4c-0.8-1.6-3.2-3.3-5.8-3.3c0,0,0,0-0.1,0
		c-3.8,0-6.9,3.6-6.9,8s3.1,8,6.9,8c3.5,0,6.5-3.2,6.8-7h-7.7v-1.8h8.7c0.5,0,0.9,0.4,0.9,0.9C58.1,55.6,54.2,60,49.5,60z
		 M71.3,59.5c-0.1,0.3-0.5,0.5-0.8,0.5l0,0l0,0c-0.4,0-0.7-0.2-0.8-0.5l-8.4-19h2l0.2,0.6l7,15.8l7.1-16.4h2L79,41.7L71.3,59.5z"/>
</g>
<g id="Calque_3" class="st0">
	<g class="st2">
		<path class="st3" d="M50,0C22.4,0,0,22.4,0,50s22.4,50,50,50s50-22.4,50-50S77.6,0,50,0z M50,93.6C25.9,93.6,6.4,74.1,6.4,50
			S25.9,6.4,50,6.4c24.1,0,43.6,19.6,43.6,43.6S74.1,93.6,50,93.6z"/>
		<path class="st3" d="M50,9C27.4,9,9,27.4,9,50s18.4,41,41,41c22.6,0,41-18.4,41-41S72.6,9,50,9z M67.9,57.6
			c-0.1,2-0.4,3.3-0.9,4.5c-0.5,1.2-1.1,2.2-2.1,3.3c-1,1-2.1,1.7-3.3,2.1c-1.2,0.5-2.5,0.8-4.5,0.9c-2,0.1-2.6,0.1-7.6,0.1
			c-5,0-5.7,0-7.6-0.1c-2-0.1-3.3-0.4-4.5-0.9c-1.2-0.5-2.3-1.1-3.3-2.1c-1-1-1.7-2.1-2.1-3.3c-0.5-1.2-0.8-2.5-0.9-4.5
			C31,55.7,31,55,31,50c0-5,0-5.7,0.1-7.6c0.1-2,0.4-3.3,0.9-4.5c0.5-1.2,1.1-2.3,2.1-3.3c1-1,2.1-1.7,3.3-2.1
			c1.2-0.5,2.5-0.8,4.5-0.9c2-0.1,2.6-0.1,7.6-0.1c5,0,5.7,0,7.6,0.1c2,0.1,3.3,0.4,4.5,0.9c1.2,0.5,2.3,1.1,3.3,2.1
			c1,1,1.7,2.1,2.1,3.3c0.5,1.2,0.8,2.5,0.9,4.5C68,44.3,68,45,68,50C68,55,68,55.7,67.9,57.6z"/>
		<path class="st3" d="M49.5,43.8c-3.4,0-6.2,2.8-6.2,6.2c0,3.4,2.8,6.2,6.2,6.2c3.4,0,6.2-2.8,6.2-6.2
			C55.7,46.6,52.9,43.8,49.5,43.8z"/>
		<path class="st3" d="M63.9,39.1c-0.3-0.9-0.7-1.5-1.4-2.1c-0.6-0.6-1.3-1-2.1-1.4c-0.7-0.3-1.6-0.6-3.4-0.6
			c-2-0.1-2.5-0.1-7.5-0.1c-4.9,0-5.5,0-7.5,0.1c-1.8,0.1-2.8,0.4-3.4,0.6c-0.9,0.3-1.5,0.7-2.1,1.4c-0.6,0.6-1,1.3-1.4,2.1
			c-0.3,0.7-0.6,1.6-0.6,3.4c-0.1,2-0.1,2.5-0.1,7.5c0,4.9,0,5.5,0.1,7.5c0.1,1.8,0.4,2.8,0.6,3.4c0.3,0.9,0.7,1.5,1.4,2.1
			c0.6,0.6,1.3,1,2.1,1.4c0.7,0.3,1.6,0.6,3.4,0.6c2,0.1,2.5,0.1,7.5,0.1c4.9,0,5.5,0,7.5-0.1c1.8-0.1,2.8-0.4,3.4-0.6
			c0.9-0.3,1.5-0.7,2.1-1.4c0.6-0.6,1-1.3,1.4-2.1c0.3-0.7,0.6-1.6,0.6-3.4c0.1-2,0.1-2.5,0.1-7.5c0-4.9,0-5.5-0.1-7.5
			C64.5,40.7,64.2,39.7,63.9,39.1z M49.5,59.5c-5.3,0-9.5-4.3-9.5-9.5c0-5.3,4.3-9.5,9.5-9.5c5.3,0,9.5,4.3,9.5,9.5
			C59,55.3,54.8,59.5,49.5,59.5z M59.4,42.3c-1.2,0-2.2-1-2.2-2.2c0-1.2,1-2.2,2.2-2.2c1.2,0,2.2,1,2.2,2.2
			C61.6,41.3,60.6,42.3,59.4,42.3z"/>
	</g>
</g>
<g id="add_product" class="st0">
	<g>
		<path class="st1" d="M50,0C22.4,0,0,22.4,0,50s22.4,50,50,50s50-22.4,50-50S77.6,0,50,0z M50,93.6C25.9,93.6,6.4,74.1,6.4,50
			S25.9,6.4,50,6.4c24.1,0,43.6,19.6,43.6,43.6S74.1,93.6,50,93.6z"/>
	</g>
	<g class="st2">
		<path class="st4" d="M42.9,58.8c1-7,3-12.1,4.6-16.4c1.5-3.8,2.7-6.9,2.7-10c0-3.7-0.6-7.3-2-9.9c-1.2-2.1-3-3.5-5.6-3.5
			c-2.6,0-4.4,1.4-5.6,3.5c-1.4,2.6-2,6.2-2,9.9c0,3.1,1.2,6.2,2.7,10c1.7,4.3,3.7,9.4,4.6,16.4l0.2,1.5L42.9,58.8L42.9,58.8z
			 M47.1,42.3L47.1,42.3c-1.6,4-3.4,8.7-4.5,15.1c-1-6.3-2.9-11.1-4.5-15.1c-1.5-3.7-2.7-6.8-2.7-9.9c0-3.6,0.5-7.2,1.9-9.7
			c1.1-2,2.8-3.3,5.2-3.3c2.4,0,4.1,1.3,5.2,3.3c1.4,2.5,1.9,6.1,1.9,9.7C49.8,35.5,48.6,38.5,47.1,42.3z"/>
		<path class="st4" d="M42.9,55.8c0.6-6.4,1.7-11.2,2.7-15.1c0.9-3.5,1.6-6.3,1.6-9.2c0-3.4-0.3-6.7-1.1-9.1c-0.7-2-1.8-3.3-3.3-3.3
			c-1.5,0-2.6,1.3-3.3,3.3c-0.8,2.4-1.1,5.7-1.1,9.1c0,2.9,0.7,5.7,1.6,9.2l0,0c1,3.9,2.1,8.7,2.7,15.1l0.2,2.5L42.9,55.8L42.9,55.8
			z M45.1,40.6L45.1,40.6c-0.9,3.5-1.9,7.6-2.5,13c-0.6-5.4-1.6-9.5-2.5-13v0c-0.8-3.5-1.5-6.3-1.5-9.1c0-3.3,0.3-6.6,1.1-8.9
			c0.6-1.8,1.6-3,2.9-3c1.3,0,2.3,1.2,2.9,3c0.8,2.3,1.1,5.6,1.1,8.9C46.7,34.3,46,37.2,45.1,40.6L45.1,40.6z"/>
		<path class="st4" d="M42.9,55.8c0.3-6.4,0.8-11.2,1.2-15.1c0.4-3.5,0.7-6.3,0.7-9.2c0-3.3-0.1-6.7-0.5-9c-0.3-2-0.8-3.3-1.6-3.3
			c-0.8,0-1.3,1.3-1.6,3.3c-0.4,2.3-0.5,5.7-0.5,9c0,2.9,0.3,5.7,0.7,9.2c0.4,3.9,1,8.7,1.2,15.1L42.9,55.8L42.9,55.8z M43.7,40.6
			L43.7,40.6c-0.3,3-0.7,6.6-1,11c-0.3-4.4-0.7-8-1-11c-0.4-3.5-0.7-6.3-0.7-9.1c0-3.3,0.1-6.6,0.5-9c0.3-1.8,0.7-3,1.2-3
			c0.5,0,0.9,1.2,1.2,3c0.4,2.3,0.5,5.6,0.5,9C44.4,34.3,44.1,37.2,43.7,40.6z"/>
		<path class="st4" d="M44.9,79.4L45.5,57c0.1-3.1-5.9-2.7-5.8,0l0.6,22.4C40.4,81.6,44.9,81.7,44.9,79.4L44.9,79.4L44.9,79.4z
			 M43.4,78.6L43.4,78.6c-0.2,0.2-0.4,0.3-0.7,0.3c-0.3,0-0.5-0.1-0.7-0.3c-0.2-0.2-0.3-0.4-0.3-0.7c0-0.3,0.1-0.5,0.3-0.7
			c0.2-0.2,0.4-0.3,0.7-0.3c0.3,0,0.5,0.1,0.7,0.3c0.2,0.2,0.3,0.4,0.3,0.7C43.7,78.2,43.5,78.4,43.4,78.6z"/>
	</g>
	<path class="st5" d="M58,80.8h-0.7c-0.4,0-0.7-0.1-1-0.3h0c-0.3-0.2-0.4-0.5-0.4-0.7v-5.9c0.6-0.3,0.3-3.1,0.2-3.5
		c-0.1-0.4-0.2-0.9-0.3-1.3h-0.2c-1.1,0-1.9-0.9-1.9-1.9V32.6c0-1.1,0.9-1.9,1.9-1.9h0.2c0.2-0.4,0.3-0.8,0.3-1.3
		c0.1-0.4,0.4-3.2-0.2-3.5v-5.9c0-0.3,0.2-0.6,0.4-0.7h0c0.3-0.2,0.6-0.3,1-0.3H58c0.4,0,0.7,0.1,1,0.3c0.3,0.2,0.4,0.5,0.4,0.7V26
		c-0.6,0.3-0.4,2.8-0.4,3.3c0.1,0.5,0.2,1,0.4,1.4h0.3c1.1,0,1.9,0.9,1.9,1.9v34.5c0,1.1-0.9,1.9-1.9,1.9h-0.3
		c-0.2,0.4-0.3,0.9-0.4,1.4c-0.1,0.5-0.2,3,0.4,3.3v5.9c0,0.3-0.2,0.6-0.4,0.7C58.7,80.6,58.4,80.8,58,80.8z"/>
	<g class="st2">
		<path class="st3" d="M50,2c26.5,0,48,21.5,48,48S76.5,98,50,98S2,76.5,2,50S23.5,2,50,2 M50,0C22.4,0,0,22.4,0,50s22.4,50,50,50
			s50-22.4,50-50S77.6,0,50,0L50,0z"/>
	</g>
</g>
<g id="update_product_-_copie" class="st0">
	<g class="st2">
		<path class="st4" d="M61.1,50.5c0-0.1,0-0.1,0-0.2c0-3.6-4.8-6.6-10.7-6.6c-5.9,0-10.7,2.9-10.7,6.6c0,0.1,0,0.1,0,0.2
			c0.2,0.1,0.4,0.1,0.6,0.1c0.5,0,1.1-0.3,1.6-0.6c0.6-0.3,1.1-0.6,1.7-0.6c0.6,0,1.2,0.3,1.7,0.6c0.5,0.3,1.1,0.6,1.6,0.6
			c0.5,0,1.1-0.3,1.6-0.6v0c0.6-0.3,1.1-0.6,1.7-0.6c0.6,0,1.2,0.3,1.7,0.6c0.5,0.3,1.1,0.6,1.6,0.6c0.5,0,1.1-0.3,1.6-0.6
			c0.6-0.3,1.1-0.6,1.7-0.6c0.6,0,1.2,0.3,1.7,0.6c0.5,0.3,1.1,0.6,1.6,0.6C60.7,50.6,60.9,50.5,61.1,50.5z"/>
		<path class="st6" d="M43.6,67.4h1.5L40,51.2c-1.1-0.1-2.1-1.2-3.2-1.2C39,55.8,41.3,61.6,43.6,67.4L43.6,67.4z M45.3,67.4
			L45.3,67.4L45.3,67.4l-5.1-16.3c1.1,0,2.1-1.1,3.2-1.2l3.4,17.5H45.3L45.3,67.4z M47.1,67.4L47.1,67.4l-3.4-17.5
			c1.1,0.1,2.1,1.1,3.2,1.2l1.7,16.3H47.1L47.1,67.4z M48.8,67.4L48.8,67.4h1.6H52l1.7-16.3c-1.1-0.1-2.1-1.1-3.2-1.2l0,17.5h-0.2
			l0-17.5c-1.1,0.1-2.1,1.1-3.2,1.2L48.8,67.4L48.8,67.4z M50.4,49.9L50.4,49.9L50.4,49.9h-0.1H50.4L50.4,49.9z M52.2,67.4
			L52.2,67.4l1.7-16.3c1.1-0.1,2.1-1.1,3.2-1.2l-3.4,17.5H52.2L52.2,67.4z M53.9,67.4L53.9,67.4h1.5l0,0l5.1-16.3
			c-1.1-0.1-2.2-1.2-3.3-1.2l0.1,0L53.9,67.4L53.9,67.4z M55.7,67.4L55.7,67.4h1.5c2.3-5.8,4.5-11.7,6.8-17.5
			c-1.1,0-2.1,1.1-3.2,1.2L55.7,67.4z"/>
		<path class="st4" d="M48.2,34.2c4.4,1.2,8.9,3.8,11.2,7.8c-1.6-4.6-8.1-9.4-11.8-10.9C47.7,31.9,48,33.1,48.2,34.2z"/>
		<path class="st7" d="M59.4,42.1c-2.3-4-6.8-6.6-11.2-7.8c0.1,0.8,0.2,1.6,0.1,2.3c0,0.4-0.2,0.8-0.4,1.1c4.6,1,9.3,3.4,11.7,7.5
			C59.9,44.1,59.8,43.1,59.4,42.1z"/>
		<path class="st4" d="M59.7,45.1c-2.5-4.1-7.1-6.5-11.7-7.5c-0.7,1.1-2.1,1.6-3.4,2.3c5.4,0.4,11.1,2.3,14.6,6.5
			c0.1-0.1,0.2-0.2,0.2-0.4C59.5,45.8,59.6,45.4,59.7,45.1z"/>
		<path class="st7" d="M59.1,46.5c-3.5-4.2-9.2-6.2-14.6-6.5c0,0-0.1,0-0.1,0c-0.9,0.5-1.5,1-2.2,1.7c-0.4,0.4-0.7,0.8-0.9,1.1
			c3.2-0.3,6.6,0,9.6,0.9c2.3,0.7,4.4,1.9,6.2,3.5C58.1,47.2,58.7,46.9,59.1,46.5C59.1,46.5,59.1,46.5,59.1,46.5z"/>
		<path class="st4" d="M51,43.8c-3.1-1-6.4-1.2-9.6-0.9c-0.8,1.2-1.2,2.4-0.9,3.3c0.7-0.1,1.4-0.2,2.2-0.3c2.6-0.3,5.2-0.2,7.7,0.5
			c0.9-0.1,1.9,0,2.8,0.3c1.8,0.5,3.1,0.7,4.1,0.6C55.4,45.6,53.3,44.5,51,43.8z"/>
		<path class="st7" d="M50.3,46.3c-2.5-0.7-5.1-0.8-7.7-0.5c-0.7,0.1-1.5,0.2-2.2,0.3c0.1,0.4,0.3,0.7,0.7,0.9
			c0.7,0.4,1.8,0.6,3.4,0.3C46.7,47,48.5,46.5,50.3,46.3z"/>
	</g>
	<g class="st2">
		<path class="st3" d="M34.2,82.7c-0.2,0-0.3-0.1-0.4-0.3c0-0.1,0-0.2,0.1-0.3C33.9,82,34,82,34.1,82l9.1-1.8l-3.4-1.2
			c-4-1.4-7.6-3.7-10.7-6.6c-5.7-5.5-9-13-9.1-20.9c-0.1-8,2.8-15.5,8.3-21.2c4.4-4.5,10-7.5,16.2-8.6c0,0,0,0,0,0
			c0.3,0,0.4,0.1,0.4,0.3c0,0.1,0,0.2-0.1,0.3c-0.1,0.1-0.1,0.1-0.3,0.2c-6,1.1-11.5,4-15.8,8.4c-11.1,11.5-10.8,29.9,0.7,41.1
			c3.4,3.3,7.6,5.7,12.2,7l2.3,0.7l-4.8-8.7c-0.1-0.1-0.1-0.2,0-0.3c0-0.1,0.1-0.2,0.2-0.2c0.1,0,0.1,0,0.2,0c0.1,0,0.3,0.1,0.3,0.2
			l5.3,9.6c0.1,0.1,0.1,0.2,0,0.4c-0.1,0.1-0.2,0.2-0.3,0.2L34.2,82.7L34.2,82.7z"/>
		<path class="st3" d="M55.2,80.3c-0.2,0-0.4-0.1-0.4-0.3c0-0.1,0-0.2,0.1-0.3c0.1-0.1,0.1-0.1,0.3-0.2c6-1.1,11.5-4,15.8-8.4
			C82,59.6,81.7,41.1,70.2,30c-3.4-3.3-7.6-5.7-12.2-7l-2.3-0.7l4.8,8.7c0.1,0.1,0.1,0.2,0,0.3c0,0.1-0.1,0.2-0.2,0.2
			c-0.1,0-0.1,0-0.2,0c-0.1,0-0.3-0.1-0.3-0.2l-5.3-9.6c-0.1-0.1-0.1-0.2,0-0.4c0.1-0.1,0.2-0.2,0.3-0.2L65.5,19c0,0,0,0,0,0
			c0.2,0,0.4,0.1,0.4,0.3c0,0.1,0,0.2-0.1,0.3c-0.1,0.1-0.1,0.1-0.2,0.2l-9.1,1.8l3.4,1.2c4,1.4,7.6,3.7,10.7,6.6
			c5.7,5.5,9,13,9.1,20.9c0.1,8-2.8,15.5-8.3,21.2C67.1,76.2,61.5,79.2,55.2,80.3L55.2,80.3z"/>
	</g>
	<g class="st2">
		<path class="st3" d="M50,2c26.5,0,48,21.5,48,48S76.5,98,50,98S2,76.5,2,50S23.5,2,50,2 M50,0C22.4,0,0,22.4,0,50s22.4,50,50,50
			s50-22.4,50-50S77.6,0,50,0L50,0z"/>
	</g>
</g>
<g id="delete_product" class="st0">
	<g>
		<path class="st5" d="M61.1,50.5c0-0.1,0-0.1,0-0.2c0-3.6-4.8-6.6-10.7-6.6c-5.9,0-10.7,2.9-10.7,6.6c0,0.1,0,0.1,0,0.2
			c0.2,0.1,0.4,0.1,0.6,0.1c0.5,0,1.1-0.3,1.6-0.6c0.6-0.3,1.1-0.6,1.7-0.6c0.6,0,1.2,0.3,1.7,0.6c0.5,0.3,1.1,0.6,1.6,0.6
			c0.5,0,1.1-0.3,1.6-0.6v0c0.6-0.3,1.1-0.6,1.7-0.6c0.6,0,1.2,0.3,1.7,0.6c0.5,0.3,1.1,0.6,1.6,0.6c0.5,0,1.1-0.3,1.6-0.6
			c0.6-0.3,1.1-0.6,1.7-0.6c0.6,0,1.2,0.3,1.7,0.6c0.5,0.3,1.1,0.6,1.6,0.6C60.7,50.6,60.9,50.5,61.1,50.5z"/>
		<path class="st8" d="M43.6,67.4h1.5L40,51.2c-1.1-0.1-2.1-1.2-3.2-1.2C39,55.8,41.3,61.6,43.6,67.4L43.6,67.4z M45.3,67.4
			L45.3,67.4L45.3,67.4l-5.1-16.3c1.1,0,2.1-1.1,3.2-1.2l3.4,17.5H45.3L45.3,67.4z M47.1,67.4L47.1,67.4l-3.4-17.5
			c1.1,0.1,2.1,1.1,3.2,1.2l1.7,16.3H47.1L47.1,67.4z M48.8,67.4L48.8,67.4h1.6H52l1.7-16.3c-1.1-0.1-2.1-1.1-3.2-1.2l0,17.5h-0.2
			l0-17.5c-1.1,0.1-2.1,1.1-3.2,1.2L48.8,67.4L48.8,67.4z M50.4,49.9L50.4,49.9L50.4,49.9h-0.1H50.4L50.4,49.9z M52.2,67.4
			L52.2,67.4l1.7-16.3c1.1-0.1,2.1-1.1,3.2-1.2l-3.4,17.5H52.2L52.2,67.4z M53.9,67.4L53.9,67.4h1.5l0,0l5.1-16.3
			c-1.1-0.1-2.2-1.2-3.3-1.2l0.1,0L53.9,67.4L53.9,67.4z M55.7,67.4L55.7,67.4h1.5c2.3-5.8,4.5-11.7,6.8-17.5
			c-1.1,0-2.1,1.1-3.2,1.2L55.7,67.4z"/>
		<path class="st5" d="M48.2,34.2c4.4,1.2,8.9,3.8,11.2,7.8c-1.6-4.6-8.1-9.4-11.8-10.9C47.7,31.9,48,33.1,48.2,34.2z"/>
		<path class="st9" d="M59.4,42.1c-2.3-4-6.8-6.6-11.2-7.8c0.1,0.8,0.2,1.6,0.1,2.3c0,0.4-0.2,0.8-0.4,1.1c4.6,1,9.3,3.4,11.7,7.5
			C59.9,44.1,59.8,43.1,59.4,42.1z"/>
		<path class="st5" d="M59.7,45.1c-2.5-4.1-7.1-6.5-11.7-7.5c-0.7,1.1-2.1,1.6-3.4,2.3c5.4,0.4,11.1,2.3,14.6,6.5
			c0.1-0.1,0.2-0.2,0.2-0.4C59.5,45.8,59.6,45.4,59.7,45.1z"/>
		<path class="st9" d="M59.1,46.5c-3.5-4.2-9.2-6.2-14.6-6.5c0,0-0.1,0-0.1,0c-0.9,0.5-1.5,1-2.2,1.7c-0.4,0.4-0.7,0.8-0.9,1.1
			c3.2-0.3,6.6,0,9.6,0.9c2.3,0.7,4.4,1.9,6.2,3.5C58.1,47.2,58.7,46.9,59.1,46.5C59.1,46.5,59.1,46.5,59.1,46.5z"/>
		<path class="st5" d="M51,43.8c-3.1-1-6.4-1.2-9.6-0.9c-0.8,1.2-1.2,2.4-0.9,3.3c0.7-0.1,1.4-0.2,2.2-0.3c2.6-0.3,5.2-0.2,7.7,0.5
			c0.9-0.1,1.9,0,2.8,0.3c1.8,0.5,3.1,0.7,4.1,0.6C55.4,45.6,53.3,44.5,51,43.8z"/>
		<path class="st9" d="M50.3,46.3c-2.5-0.7-5.1-0.8-7.7-0.5c-0.7,0.1-1.5,0.2-2.2,0.3c0.1,0.4,0.3,0.7,0.7,0.9
			c0.7,0.4,1.8,0.6,3.4,0.3C46.7,47,48.5,46.5,50.3,46.3z"/>
	</g>
	<g>
		<path class="st1" d="M40.9,69.9c-0.4-0.7-1.2-0.9-1.9-0.5c-0.3,0.2-0.6,0.5-0.7,0.8c-0.1,0.4-0.1,0.7,0.1,1.1l3.6,6.6
			c-4.4-1.3-8.5-3.6-11.8-6.8c-11.1-10.7-11.4-28.5-0.7-39.7c4.1-4.3,9.4-7.1,15.2-8.1c0.4-0.1,0.7-0.3,0.9-0.6
			c0.2-0.3,0.3-0.7,0.2-1c-0.1-0.8-0.8-1.2-1.6-1.1c-6.4,1.1-12.2,4.2-16.7,8.9c-5.7,5.9-8.8,13.7-8.6,22c0.1,8.2,3.5,15.9,9.4,21.6
			c3.2,3.1,6.9,5.4,11,6.8L33.9,81c-0.4,0.1-0.7,0.3-0.9,0.6c-0.2,0.3-0.3,0.7-0.2,1c0.1,0.6,0.7,1.1,1.4,1.1c0.1,0,0.2,0,0.3,0
			l10.8-2.2c0.4-0.1,0.8-0.4,1-0.8c0.2-0.4,0.2-0.9,0-1.3L40.9,69.9z"/>
		<path class="st1" d="M58.9,31.9c0.4,0.7,1.2,0.9,1.9,0.5c0.3-0.2,0.6-0.5,0.7-0.8c0.1-0.4,0.1-0.7-0.1-1.1L57.7,24
			c4.4,1.3,8.5,3.6,11.8,6.8c11.1,10.7,11.4,28.5,0.7,39.7c-4.1,4.3-9.4,7.1-15.2,8.1c-0.4,0.1-0.7,0.3-0.9,0.6
			c-0.2,0.3-0.3,0.7-0.2,1c0.1,0.8,0.8,1.2,1.6,1.1c6.4-1.1,12.2-4.2,16.7-8.9c5.7-5.9,8.8-13.7,8.6-22c-0.1-8.2-3.5-15.9-9.4-21.6
			c-3.2-3.1-6.9-5.4-11-6.8l5.5-1.1c0.4-0.1,0.7-0.3,0.9-0.6c0.2-0.3,0.3-0.7,0.2-1c-0.1-0.6-0.7-1.1-1.4-1.1c-0.1,0-0.2,0-0.3,0
			l-10.8,2.2c-0.4,0.1-0.8,0.4-1,0.8c-0.2,0.4-0.2,0.9,0,1.3L58.9,31.9z"/>
	</g>
	<g class="st2">
		<path class="st3" d="M50,2c26.5,0,48,21.5,48,48S76.5,98,50,98S2,76.5,2,50S23.5,2,50,2 M50,0C22.4,0,0,22.4,0,50s22.4,50,50,50
			s50-22.4,50-50S77.6,0,50,0L50,0z"/>
	</g>
	<g class="st2">
		<polygon class="st10" points="44.7,29.6 55.3,29.6 55.3,28.7 44.7,28.7 		"/>
		<polygon class="st10" points="44.7,29.6 55.3,29.6 55.3,28.7 44.7,28.7 		"/>
		<g>
			<path class="st3" d="M56.6,27l-13.2,0c-0.1,0-0.2,0-0.2,0.1c-0.1,0.1-0.1,0.2-0.1,0.2l0,1.3l0.7,0l0-0.9l12.6,0l0,0.9l0.7,0
				l0-1.3c0-0.1,0-0.2-0.1-0.2C56.8,27,56.7,27,56.6,27L56.6,27z"/>
		</g>
		<g>
			<polyline class="st3" points="65.9,33.5 70,33.5 70,35.8 30,35.8 30,33.6 34.1,33.6 			"/>
		</g>
		<g>
			<polygon class="st3" points="31,34.6 35.1,34.6 35.1,31.6 64.9,31.6 64.9,34.5 69,34.5 69,34.8 31,34.8 			"/>
		</g>
		<g>
			<path class="st3" d="M59.5,70.3V42.9h3v27.4H59.5z M48.5,70.3V42.9h3v27.4H48.5z M37.5,70.3V42.9h3v27.4H37.5z"/>
		</g>
		<g>
			<path class="st3" d="M32.3,73v-34h35.5v34H32.3z M59.2,40.9c-0.4,0-0.9,0.2-1.2,0.5c-0.3,0.3-0.5,0.7-0.5,1.2v28.2
				c0,0.4,0.2,0.9,0.5,1.2c0.3,0.3,0.7,0.5,1.2,0.5h3.7c0.4,0,0.9-0.2,1.2-0.5c0.3-0.3,0.5-0.7,0.5-1.2V42.5c0-0.4-0.2-0.9-0.5-1.2
				c-0.3-0.3-0.7-0.5-1.2-0.5H59.2z M48.2,40.9c-0.4,0-0.9,0.2-1.2,0.5c-0.3,0.3-0.5,0.7-0.5,1.2v28.2c0,0.4,0.2,0.9,0.5,1.2
				c0.3,0.3,0.7,0.5,1.2,0.5h3.7c0.4,0,0.8-0.2,1.2-0.5c0.3-0.3,0.5-0.7,0.5-1.2V42.5c0-0.4-0.2-0.9-0.5-1.2
				c-0.3-0.3-0.7-0.5-1.2-0.5H48.2z M37.1,40.9c-0.4,0-0.9,0.2-1.2,0.5c-0.3,0.3-0.5,0.7-0.5,1.2v28.2c0,0.4,0.2,0.9,0.5,1.2
				c0.3,0.3,0.7,0.5,1.2,0.5h3.7c0.4,0,0.8-0.2,1.2-0.5c0.3-0.3,0.5-0.7,0.5-1.2V42.5c0-0.4-0.2-0.9-0.5-1.2
				c-0.3-0.3-0.7-0.5-1.2-0.5H37.1z"/>
		</g>
	</g>
</g>
<g id="delete_product_-_copie" class="st0">
	<g>
		<path class="st5" d="M61.1,50.5c0-0.1,0-0.1,0-0.2c0-3.6-4.8-6.6-10.7-6.6c-5.9,0-10.7,2.9-10.7,6.6c0,0.1,0,0.1,0,0.2
			c0.2,0.1,0.4,0.1,0.6,0.1c0.5,0,1.1-0.3,1.6-0.6c0.6-0.3,1.1-0.6,1.7-0.6c0.6,0,1.2,0.3,1.7,0.6c0.5,0.3,1.1,0.6,1.6,0.6
			c0.5,0,1.1-0.3,1.6-0.6v0c0.6-0.3,1.1-0.6,1.7-0.6c0.6,0,1.2,0.3,1.7,0.6c0.5,0.3,1.1,0.6,1.6,0.6c0.5,0,1.1-0.3,1.6-0.6
			c0.6-0.3,1.1-0.6,1.7-0.6c0.6,0,1.2,0.3,1.7,0.6c0.5,0.3,1.1,0.6,1.6,0.6C60.7,50.6,60.9,50.5,61.1,50.5z"/>
		<path class="st8" d="M43.6,67.4h1.5L40,51.2c-1.1-0.1-2.1-1.2-3.2-1.2C39,55.8,41.3,61.6,43.6,67.4L43.6,67.4z M45.3,67.4
			L45.3,67.4L45.3,67.4l-5.1-16.3c1.1,0,2.1-1.1,3.2-1.2l3.4,17.5H45.3L45.3,67.4z M47.1,67.4L47.1,67.4l-3.4-17.5
			c1.1,0.1,2.1,1.1,3.2,1.2l1.7,16.3H47.1L47.1,67.4z M48.8,67.4L48.8,67.4h1.6H52l1.7-16.3c-1.1-0.1-2.1-1.1-3.2-1.2l0,17.5h-0.2
			l0-17.5c-1.1,0.1-2.1,1.1-3.2,1.2L48.8,67.4L48.8,67.4z M50.4,49.9L50.4,49.9L50.4,49.9h-0.1H50.4L50.4,49.9z M52.2,67.4
			L52.2,67.4l1.7-16.3c1.1-0.1,2.1-1.1,3.2-1.2l-3.4,17.5H52.2L52.2,67.4z M53.9,67.4L53.9,67.4h1.5l0,0l5.1-16.3
			c-1.1-0.1-2.2-1.2-3.3-1.2l0.1,0L53.9,67.4L53.9,67.4z M55.7,67.4L55.7,67.4h1.5c2.3-5.8,4.5-11.7,6.8-17.5
			c-1.1,0-2.1,1.1-3.2,1.2L55.7,67.4z"/>
		<path class="st5" d="M48.2,34.2c4.4,1.2,8.9,3.8,11.2,7.8c-1.6-4.6-8.1-9.4-11.8-10.9C47.7,31.9,48,33.1,48.2,34.2z"/>
		<path class="st9" d="M59.4,42.1c-2.3-4-6.8-6.6-11.2-7.8c0.1,0.8,0.2,1.6,0.1,2.3c0,0.4-0.2,0.8-0.4,1.1c4.6,1,9.3,3.4,11.7,7.5
			C59.9,44.1,59.8,43.1,59.4,42.1z"/>
		<path class="st5" d="M59.7,45.1c-2.5-4.1-7.1-6.5-11.7-7.5c-0.7,1.1-2.1,1.6-3.4,2.3c5.4,0.4,11.1,2.3,14.6,6.5
			c0.1-0.1,0.2-0.2,0.2-0.4C59.5,45.8,59.6,45.4,59.7,45.1z"/>
		<path class="st9" d="M59.1,46.5c-3.5-4.2-9.2-6.2-14.6-6.5c0,0-0.1,0-0.1,0c-0.9,0.5-1.5,1-2.2,1.7c-0.4,0.4-0.7,0.8-0.9,1.1
			c3.2-0.3,6.6,0,9.6,0.9c2.3,0.7,4.4,1.9,6.2,3.5C58.1,47.2,58.7,46.9,59.1,46.5C59.1,46.5,59.1,46.5,59.1,46.5z"/>
		<path class="st5" d="M51,43.8c-3.1-1-6.4-1.2-9.6-0.9c-0.8,1.2-1.2,2.4-0.9,3.3c0.7-0.1,1.4-0.2,2.2-0.3c2.6-0.3,5.2-0.2,7.7,0.5
			c0.9-0.1,1.9,0,2.8,0.3c1.8,0.5,3.1,0.7,4.1,0.6C55.4,45.6,53.3,44.5,51,43.8z"/>
		<path class="st9" d="M50.3,46.3c-2.5-0.7-5.1-0.8-7.7-0.5c-0.7,0.1-1.5,0.2-2.2,0.3c0.1,0.4,0.3,0.7,0.7,0.9
			c0.7,0.4,1.8,0.6,3.4,0.3C46.7,47,48.5,46.5,50.3,46.3z"/>
	</g>
	<g>
		<path class="st1" d="M40.9,69.9c-0.4-0.7-1.2-0.9-1.9-0.5c-0.3,0.2-0.6,0.5-0.7,0.8c-0.1,0.4-0.1,0.7,0.1,1.1l3.6,6.6
			c-4.4-1.3-8.5-3.6-11.8-6.8c-11.1-10.7-11.4-28.5-0.7-39.7c4.1-4.3,9.4-7.1,15.2-8.1c0.4-0.1,0.7-0.3,0.9-0.6
			c0.2-0.3,0.3-0.7,0.2-1c-0.1-0.8-0.8-1.2-1.6-1.1c-6.4,1.1-12.2,4.2-16.7,8.9c-5.7,5.9-8.8,13.7-8.6,22c0.1,8.2,3.5,15.9,9.4,21.6
			c3.2,3.1,6.9,5.4,11,6.8L33.9,81c-0.4,0.1-0.7,0.3-0.9,0.6c-0.2,0.3-0.3,0.7-0.2,1c0.1,0.6,0.7,1.1,1.4,1.1c0.1,0,0.2,0,0.3,0
			l10.8-2.2c0.4-0.1,0.8-0.4,1-0.8c0.2-0.4,0.2-0.9,0-1.3L40.9,69.9z"/>
		<path class="st1" d="M58.9,31.9c0.4,0.7,1.2,0.9,1.9,0.5c0.3-0.2,0.6-0.5,0.7-0.8c0.1-0.4,0.1-0.7-0.1-1.1L57.7,24
			c4.4,1.3,8.5,3.6,11.8,6.8c11.1,10.7,11.4,28.5,0.7,39.7c-4.1,4.3-9.4,7.1-15.2,8.1c-0.4,0.1-0.7,0.3-0.9,0.6
			c-0.2,0.3-0.3,0.7-0.2,1c0.1,0.8,0.8,1.2,1.6,1.1c6.4-1.1,12.2-4.2,16.7-8.9c5.7-5.9,8.8-13.7,8.6-22c-0.1-8.2-3.5-15.9-9.4-21.6
			c-3.2-3.1-6.9-5.4-11-6.8l5.5-1.1c0.4-0.1,0.7-0.3,0.9-0.6c0.2-0.3,0.3-0.7,0.2-1c-0.1-0.6-0.7-1.1-1.4-1.1c-0.1,0-0.2,0-0.3,0
			l-10.8,2.2c-0.4,0.1-0.8,0.4-1,0.8c-0.2,0.4-0.2,0.9,0,1.3L58.9,31.9z"/>
	</g>
	<g class="st2">
		<path class="st3" d="M50,2c26.5,0,48,21.5,48,48S76.5,98,50,98S2,76.5,2,50S23.5,2,50,2 M50,0C22.4,0,0,22.4,0,50s22.4,50,50,50
			s50-22.4,50-50S77.6,0,50,0L50,0z"/>
	</g>
	<g class="st2">
		<polygon class="st10" points="44.7,29.6 55.3,29.6 55.3,28.7 44.7,28.7 		"/>
		<polygon class="st10" points="44.7,29.6 55.3,29.6 55.3,28.7 44.7,28.7 		"/>
		<g>
			<path class="st3" d="M56.6,27l-13.2,0c-0.1,0-0.2,0-0.2,0.1c-0.1,0.1-0.1,0.2-0.1,0.2l0,1.3l0.7,0l0-0.9l12.6,0l0,0.9l0.7,0
				l0-1.3c0-0.1,0-0.2-0.1-0.2C56.8,27,56.7,27,56.6,27L56.6,27z"/>
		</g>
		<g>
			<polyline class="st3" points="65.9,33.5 70,33.5 70,35.8 30,35.8 30,33.6 34.1,33.6 			"/>
		</g>
		<g>
			<polygon class="st3" points="31,34.6 35.1,34.6 35.1,31.6 64.9,31.6 64.9,34.5 69,34.5 69,34.8 31,34.8 			"/>
		</g>
		<g>
			<path class="st3" d="M59.5,70.3V42.9h3v27.4H59.5z M48.5,70.3V42.9h3v27.4H48.5z M37.5,70.3V42.9h3v27.4H37.5z"/>
		</g>
		<path class="st11" d="M32.3,73v-34h35.5v34H32.3z"/>
	</g>
</g>
<g id="Calque_3_-_copie" class="st0">
	<g class="st2">
		<path class="st12" d="M50,0C22.4,0,0,22.4,0,50s22.4,50,50,50s50-22.4,50-50S77.6,0,50,0z M50,93.6C25.9,93.6,6.4,74.1,6.4,50
			S25.9,6.4,50,6.4c24.1,0,43.6,19.6,43.6,43.6S74.1,93.6,50,93.6z"/>
		<g>
			<path class="st12" d="M50,9C27.4,9,9,27.4,9,50s18.4,41,41,41c22.6,0,41-18.4,41-41S72.6,9,50,9z M63.5,49.7L52.3,38.6v30.7v1.1
				h-4.5v-1.1V38.6L36.6,49.7l-3.2-3.2l11.2-11.2l2.2-2.2l3.2-3.2l3.2,3.2l2.2,2.2l11.2,11.2L63.5,49.7z"/>
			<polygon class="st0" points="53.2,33.2 50.1,30 46.9,33.2 44.7,35.4 33.5,46.6 36.6,49.7 47.8,38.6 47.8,69.3 47.8,70.4 
				52.3,70.4 52.3,69.3 52.3,38.6 63.5,49.7 66.6,46.6 55.5,35.4 			"/>
		</g>
	</g>
</g>
<g id="Calque_3_-_copie_2" class="st0">
	<g class="st2">
		<g>
			<path class="st13" d="M49.7,100c27.6,0.2,50.1-22.1,50.3-49.7S77.9,0.2,50.3,0S0.2,22.1,0,49.7S22.1,99.8,49.7,100z M50.2,6.4
				c24.1,0.1,43.5,19.8,43.4,43.9c-0.1,24.1-19.8,43.5-43.9,43.4C25.7,93.5,6.2,73.8,6.4,49.8S26.2,6.2,50.2,6.4z"/>
		</g>
		<g>
			<g class="st0">
				<path class="st1" d="M49.8,91C72.4,91.2,90.9,72.9,91,50.2S72.9,9.1,50.2,9C27.6,8.8,9.1,27.1,9,49.8S27.1,90.9,49.8,91z
					 M36.5,50.2l11.1,11.2l0.2-30.7l0-1.1l4.5,0l0,1.1l-0.2,30.7l11.2-11.1l3.1,3.2L55.3,64.6L53,66.9L49.8,70l-3.1-3.2l-2.2-2.2
					L33.3,53.3L36.5,50.2z"/>
			</g>
			<g>
				<path class="st13" d="M49.8,91C72.4,91.2,90.9,72.9,91,50.2S72.9,9.1,50.2,9C27.6,8.8,9.1,27.1,9,49.8S27.1,90.9,49.8,91z"/>
			</g>
			<polygon class="st0" points="46.7,66.8 49.8,70 53,66.9 55.3,64.6 66.5,53.5 63.4,50.3 52.1,61.5 52.3,30.7 52.3,29.6 47.8,29.6 
				47.8,30.7 47.6,61.4 36.5,50.2 33.3,53.3 44.5,64.6 			"/>
		</g>
	</g>
	<g class="st2">
		<g>
			<g>
				<polygon class="st14" points="29.8,43.4 33.7,39.5 49.6,55.4 65.5,39.5 69.4,43.4 49.6,63.2 				"/>
			</g>
		</g>
	</g>
</g>
<g id="edit" class="st0">
	<g class="st2">
		<g>
			<path class="st13" d="M49.7,100c27.6,0.2,50.1-22.1,50.3-49.7S77.9,0.2,50.3,0S0.2,22.1,0,49.7S22.1,99.8,49.7,100z M50.2,6.4
				c24.1,0.1,43.5,19.8,43.4,43.9c-0.1,24.1-19.8,43.5-43.9,43.4C25.7,93.5,6.2,73.8,6.4,49.8S26.2,6.2,50.2,6.4z"/>
		</g>
		<g>
			<g class="st0">
				<path class="st1" d="M49.8,91C72.4,91.2,90.9,72.9,91,50.2S72.9,9.1,50.2,9C27.6,8.8,9.1,27.1,9,49.8S27.1,90.9,49.8,91z
					 M36.5,50.2l11.1,11.2l0.2-30.7l0-1.1l4.5,0l0,1.1l-0.2,30.7l11.2-11.1l3.1,3.2L55.3,64.6L53,66.9L49.8,70l-3.1-3.2l-2.2-2.2
					L33.3,53.3L36.5,50.2z"/>
			</g>
			<g>
				<path class="st13" d="M49.8,91C72.4,91.2,90.9,72.9,91,50.2S72.9,9.1,50.2,9C27.6,8.8,9.1,27.1,9,49.8S27.1,90.9,49.8,91z"/>
			</g>
			<polygon class="st0" points="46.7,66.8 49.8,70 53,66.9 55.3,64.6 66.5,53.5 63.4,50.3 52.1,61.5 52.3,30.7 52.3,29.6 47.8,29.6 
				47.8,30.7 47.6,61.4 36.5,50.2 33.3,53.3 44.5,64.6 			"/>
		</g>
	</g>
	<g class="st2">
		<path class="st7" d="M34.7,74.5c-0.1,0-0.2,0-0.2-0.1c-0.2-0.1-0.3-0.3-0.3-0.5l0.8-11.2l9.3,5.2L35,74.3
			C34.9,74.4,34.8,74.5,34.7,74.5z"/>
		<path class="st7" d="M63.5,35.6c-0.3,0-0.5-0.1-0.7-0.2l-7.9-4.7c-0.3-0.2-0.6-0.5-0.7-0.9c-0.1-0.3,0-0.6,0.1-0.9l1.2-2
			c0.2-0.4,0.7-0.6,1.2-0.6c0.3,0,0.5,0.1,0.8,0.2l7.9,4.7c0.4,0.2,0.6,0.4,0.7,0.7c0.1,0.3,0.1,0.7-0.1,1.1l-1.2,2
			C64.4,35.4,63.9,35.6,63.5,35.6z"/>
		<polygon class="st7" points="37.1,59 52.5,33.7 61.4,39.1 46.1,64.3 		"/>
	</g>
</g>
<g id="delete">
	<g>
		<g>
			<path class="st13" d="M49.7,100c27.6,0.2,50.1-22.1,50.3-49.7S77.9,0.2,50.3,0S0.2,22.1,0,49.7S22.1,99.8,49.7,100z M50.2,6.4
				c24.1,0.1,43.5,19.8,43.4,43.9c-0.1,24.1-19.8,43.5-43.9,43.4C25.7,93.5,6.2,73.8,6.4,49.8S26.2,6.2,50.2,6.4z"/>
		</g>
		<g>
			<g class="st0">
				<path class="st1" d="M49.8,91C72.4,91.2,90.9,72.9,91,50.2S72.9,9.1,50.2,9C27.6,8.8,9.1,27.1,9,49.8S27.1,90.9,49.8,91z
					 M36.5,50.2l11.1,11.2l0.2-30.7l0-1.1l4.5,0l0,1.1l-0.2,30.7l11.2-11.1l3.1,3.2L55.3,64.6L53,66.9L49.8,70l-3.1-3.2l-2.2-2.2
					L33.3,53.3L36.5,50.2z"/>
			</g>
			<g>
				<path class="st13" d="M49.8,91C72.4,91.2,90.9,72.9,91,50.2S72.9,9.1,50.2,9C27.6,8.8,9.1,27.1,9,49.8S27.1,90.9,49.8,91z"/>
			</g>
			<polygon class="st0" points="46.7,66.8 49.8,70 53,66.9 55.3,64.6 66.5,53.5 63.4,50.3 52.1,61.5 52.3,30.7 52.3,29.6 47.8,29.6 
				47.8,30.7 47.6,61.4 36.5,50.2 33.3,53.3 44.5,64.6 			"/>
		</g>
	</g>
	<g>
		<g>
			<path class="st14" d="M56.3,26.7l-13.2,0c-0.1,0-0.2,0-0.2,0.1c-0.1,0.1-0.1,0.2-0.1,0.2l0,1.3l0.7,0l0-0.9l12.6,0l0,0.9l0.7,0
				l0-1.3c0-0.1,0-0.2-0.1-0.2C56.5,26.7,56.4,26.7,56.3,26.7L56.3,26.7z"/>
		</g>
		<g>
			<polyline class="st14" points="65.6,33.2 69.7,33.2 69.7,35.5 29.7,35.6 29.7,33.3 33.7,33.3 			"/>
		</g>
		<g>
			<polygon class="st14" points="30.7,34.3 34.7,34.3 34.7,31.4 64.6,31.3 64.6,34.2 68.7,34.2 68.7,34.5 30.7,34.6 			"/>
		</g>
		<g>
			<path class="st14" d="M59.7,69.5V43.1h2v26.4H59.7z M48.7,69.5V43.1h2v26.4H48.7z M37.7,69.5V43.1h2v26.4H37.7z"/>
			<path class="st14" d="M61.2,43.6V69h-1V43.6H61.2 M50.2,43.6V69h-1V43.6H50.2 M39.1,43.6V69h-1V43.6H39.1 M62.2,42.6h-3V70h3
				V42.6L62.2,42.6z M51.2,42.6h-3V70h3V42.6L51.2,42.6z M40.1,42.6h-3V70h3V42.6L40.1,42.6z"/>
		</g>
		<path class="st15" d="M31.9,72.7v-34h35.5v34H31.9z"/>
	</g>
</g>
</svg>
