<svg id="Calque_1" data-name="Calque 1" xmlns="http://www.w3.org/2000/svg" viewBox="0 0 100 100"><defs><style>.cls-1{fill:#a20000;}</style></defs><title>arrow_down</title><g id="Calque_3_-_copie" data-name="Calque 3 - copie"><path class="cls-1" d="M50,100A50,50,0,1,0,0,50,50,50,0,0,0,50,100ZM50,6.4A43.6,43.6,0,1,1,6.4,50,43.57,43.57,0,0,1,50,6.4Z"/><path class="cls-1" d="M50,91A41,41,0,1,0,9,50,41.06,41.06,0,0,0,50,91ZM36.5,50.3,47.7,61.4V29.6h4.5V61.4L63.4,50.3l3.2,3.2L55.4,64.7l-2.2,2.2L50,70.1l-3.2-3.2-2.2-2.2L33.4,53.5Z"/></g></svg>