<svg id="_white" data-name="++ white" xmlns="http://www.w3.org/2000/svg" viewBox="0 0 1001.44 445.8"><defs><style>.cls-1{fill:#fff;stroke:#fff;stroke-miterlimit:10;}</style></defs><title>logo_w_1000</title><g id="anne_lamour" data-name="anne lamour"><path class="cls-1" d="M2.66,368.18l-.23.66H0l.66-1.55,32.09-73a1.15,1.15,0,0,1,2,0l32.09,73,.66,1.55H65.06l-.23-.66-31.09-70.7Z" transform="translate(0.76 0.5)"/><path class="cls-1" d="M104.55,367.73v1.11h-2.21V294.71a1.14,1.14,0,0,1,2-.66l51,70.25.11-69.59v-1.1h2.21v1.1l-.11,73a1.14,1.14,0,0,1-2,.67l-51-70.26Z" transform="translate(0.76 0.5)"/><path class="cls-1" d="M204.12,367.73v1.11H201.9V294.71a1.15,1.15,0,0,1,2-.66l51,70.25.11-69.59v-1.1h2.21v1.1l-.11,73a1.14,1.14,0,0,1-2,.67l-51-70.26Z" transform="translate(0.76 0.5)"/><path class="cls-1" d="M353.47,293.61h1.11v2.21h-50.9v34.3H341v2.21H303.68v34.3h50.9v2.21h-52a1,1,0,0,1-1.11-1.11v-73a1,1,0,0,1,1.11-1.1Z" transform="translate(0.76 0.5)"/><path class="cls-1" d="M464.1,294.71v-1.1h2.21v73h42.05v2.21H465.21a1,1,0,0,1-1.11-1.11Z" transform="translate(0.76 0.5)"/><path class="cls-1" d="M537,368.18l-.22.66h-2.43l.66-1.55,32.09-73a1.15,1.15,0,0,1,2,0l32.08,73,.67,1.55H599.4l-.22-.66-31.09-70.7Z" transform="translate(0.76 0.5)"/><path class="cls-1" d="M638.9,367.73v1.11h-2.22V294.71a1.13,1.13,0,0,1,2.11-.44L671,320.83l32.09-26.56a1.12,1.12,0,0,1,2.1.44l.11,73v1.11h-2.21v-1.11L703,299.8l-31,24.12a1.14,1.14,0,0,1-2,0L638.9,299.8Z" transform="translate(0.76 0.5)"/><path class="cls-1" d="M745.1,331.22c0-20.91,15-37.61,33.19-37.61s33.2,16.7,33.2,37.61-14.94,37.62-33.2,37.62S745.1,352.13,745.1,331.22Zm2.22,0c0,19.59,13.94,35.41,31,35.41s31-15.82,31-35.41-13.83-35.4-31-35.4S747.32,311.64,747.32,331.22Z" transform="translate(0.76 0.5)"/><path class="cls-1" d="M849.09,294.71v-1h2.44l-.11,1.1-.11,50.12c0,11.95,10.84,21.69,24.34,21.69S900,356.89,900,344.94V293.72h2.43l-.11,1.1-.11,50.12c0,13.06-11.73,23.9-26.55,23.9s-26.56-10.84-26.56-23.9Z" transform="translate(0.76 0.5)"/><path class="cls-1" d="M946.45,332.33v36.51h-2.21v-1.11l0-35.5h0l0-1.05.06-36.35a1,1,0,0,1,1.11-1.1l32.08-.11c12.17,0,22,8.74,22,19.47,0,9.7-8.22,17.74-18.82,19.06,6.59,5,11.43,11.53,18.82,35.26l.44,1.44h-2.32l-.33-.77c-7.75-25.42-12.59-30.62-20.15-35.74H969v-2.18l4.95,0h3.74c10.73,0,19.7-7.53,19.7-17s-9-17.26-19.81-17.26H946.45v36.51Z" transform="translate(0.76 0.5)"/></g><g id="LA"><path class="cls-1" d="M614.56,220.44l2,.69-.09,7.4-4.68-2.08L391.28,126.09c-2.33-1-2.28-5.07.08-6L614.42,25.5l4.73-1.95-.09,7.39-2,.65-216,91.6Z" transform="translate(0.76 0.5)"/><path class="cls-1" d="M482.1,3.36V0h6.72V221.8h127.7v6.72H485.46a3.18,3.18,0,0,1-3.36-3.36Z" transform="translate(0.76 0.5)"/></g><g id="patisseries"><path class="cls-1" d="M275.09,416.64a12,12,0,0,1,11-7.76c6.57,0,12,5.81,12,13.14s-5.42,13.14-12,13.14a12.08,12.08,0,0,1-11-7.65V444.8H274V408.88h1.09v7.76Zm0,5.38c0,6.68,4.93,12.05,11,12.05S297,428.7,297,422s-4.88-12-10.9-12S275.2,415.29,275.09,422Z" transform="translate(0.76 0.5)"/><path class="cls-1" d="M324.37,422c0-7.33,5.15-13.14,11.39-13.14,4.29,0,8.07,3,9.85,7.38v-7.38h1.1v26.28h-1.1v-7.38c-1.78,4.42-5.56,7.38-9.85,7.38C329.52,435.16,324.37,429.36,324.37,422Zm1.09,0c0,6.68,4.6,12.05,10.3,12.05,5.42,0,9.85-5.42,9.85-12.05s-4.43-12-9.85-12C330.06,410,325.46,415.34,325.46,422Z" transform="translate(0.76 0.5)"/><path class="cls-1" d="M380,410v18.29c.06,3.83,2.91,5.8,7.78,5.8h.55v1.09h-.55c-5.75,0-8.82-2.51-8.87-6.89V410h-4.82v-1.1h4.82v-6.29H380v6.29h8.33V410H380Z" transform="translate(0.76 0.5)"/><path class="cls-1" d="M416.78,403.9h-.54v-1.09h1.15v1.09h-.61Zm-.54,5.53v-.55h1.09v26.28h-1.09V409.43Z" transform="translate(0.76 0.5)"/><path class="cls-1" d="M465.73,415.67h-1.09c0-3.23-3.78-5.69-8.11-5.69s-8.1,2.46-8.1,5.69c0,6.24,18.34,5.37,18.29,12.71,0,3.66-4.33,6.78-10.19,6.78s-10.18-3.12-10.18-6.78h1.09c0,3.23,4.22,5.69,9.09,5.69s9.09-2.46,9.09-5.69c0-6.25-18.23-5.26-18.29-12.71,0-3.67,4-6.79,9.2-6.79S465.73,412,465.73,415.67Z" transform="translate(0.76 0.5)"/><path class="cls-1" d="M512.38,415.67h-1.1c0-3.23-3.78-5.69-8.1-5.69s-8.1,2.46-8.1,5.69c0,6.24,18.34,5.37,18.28,12.71,0,3.66-4.32,6.78-10.18,6.78S493,432,493,428.38h1.1c0,3.23,4.22,5.69,9.09,5.69s9.09-2.46,9.09-5.69c0-6.25-18.24-5.26-18.29-12.71,0-3.67,4-6.79,9.2-6.79S512.38,412,512.38,415.67Z" transform="translate(0.76 0.5)"/><path class="cls-1" d="M561.32,429.2l.88.65a12.16,12.16,0,0,1-10.51,5.31c-6.68,0-12.05-5.8-12.05-13.14s5.37-13.14,12.05-13.14,12,5.81,12,13.14v.55h-23c.25,6.42,5,11.5,10.94,11.5A11.21,11.21,0,0,0,561.32,429.2Zm-20.57-7.72h21.89c0-6.14-4.88-11.5-10.95-11.5S541,415.05,540.75,421.48Z" transform="translate(0.76 0.5)"/><path class="cls-1" d="M593.29,416c2-4.64,6.38-7.15,11.94-7.15h.55V410h-.55c-6.88,0-11.88,4.18-11.94,11.79v13.39H592.2V408.88h1.09V416Z" transform="translate(0.76 0.5)"/><path class="cls-1" d="M633.7,403.9h-.55v-1.09h1.15v1.09h-.6Zm-.55,5.53v-.55h1.1v26.28h-1.1V409.43Z" transform="translate(0.76 0.5)"/><path class="cls-1" d="M685,429.2l.87.65a12.16,12.16,0,0,1-10.51,5.31c-6.68,0-12-5.8-12-13.14s5.37-13.14,12-13.14,12,5.81,12,13.14v.55h-23c.25,6.42,5,11.5,10.94,11.5A11.23,11.23,0,0,0,685,429.2Zm-20.58-7.72h21.89c0-6.14-4.87-11.5-11-11.5S664.62,415.05,664.37,421.48Z" transform="translate(0.76 0.5)"/><path class="cls-1" d="M733,415.67h-1.09c0-3.23-3.78-5.69-8.1-5.69s-8.11,2.46-8.11,5.69c0,6.24,18.34,5.37,18.29,12.71,0,3.66-4.33,6.78-10.18,6.78s-10.19-3.12-10.19-6.78h1.1c0,3.23,4.21,5.69,9.09,5.69s9.08-2.46,9.08-5.69c0-6.25-18.23-5.26-18.28-12.71,0-3.67,4-6.79,9.2-6.79S733,412,733,415.67Z" transform="translate(0.76 0.5)"/><path class="cls-1" d="M329,404h-.27V403h14.23V404H329Z" transform="translate(0.76 0.5)"/></g></svg>