<?xml version="1.0" encoding="utf-8"?>
<!-- Generator: Adobe Illustrator 23.0.4, SVG Export Plug-In . SVG Version: 6.00 Build 0)  -->
<svg version="1.1" id="Calque_1" xmlns="http://www.w3.org/2000/svg" xmlns:xlink="http://www.w3.org/1999/xlink" x="0px" y="0px"
	 viewBox="0 0 1000 445" style="enable-background:new 0 0 1000 445;" xml:space="preserve">
<style type="text/css">
	.st0{fill:#FFFFFF;stroke:#FFFFFF;stroke-width:3;stroke-miterlimit:10;}
	.st1{fill:#FFFFFF;stroke:#FFFFFF;stroke-width:2;stroke-miterlimit:10;}
	.st2{fill:#FFFFFF;stroke:#FFFFFF;stroke-miterlimit:10;}
</style>
<title>logo_1000</title>
<path class="st0" d="M2.7,368.2l-0.2,0.7H0l0.7-1.5l32.1-73c0.3-0.6,1-0.7,1.6-0.4c0.2,0.1,0.3,0.3,0.4,0.4l32.1,73l0.7,1.5h-2.4
	l-0.2-0.7l-31.1-70.7L2.7,368.2z"/>
<path class="st0" d="M104.6,367.7v1.1h-2.2v-74.1c0-0.6,0.6-1.1,1.2-1.1c0.3,0,0.6,0.2,0.8,0.4l51,70.2l0.1-69.6v-1.1h2.2v1.1
	l-0.1,73c0,0.6-0.6,1.1-1.2,1.1c-0.3,0-0.6-0.2-0.8-0.4l-51-70.3V367.7z"/>
<path class="st0" d="M204.1,367.7v1.1h-2.2v-74.1c0.1-0.6,0.6-1.1,1.3-1c0.3,0,0.6,0.2,0.7,0.4l51,70.2l0.1-69.6v-1.1h2.2v1.1
	l-0.1,73c0,0.6-0.6,1.1-1.2,1.1c-0.3,0-0.6-0.2-0.8-0.4l-51-70.3L204.1,367.7z"/>
<path class="st0" d="M353.5,293.6h1.1v2.2h-50.9v34.3H341v2.2h-37.3v34.3h50.9v2.2h-52c-0.5,0.1-1-0.3-1.1-0.9c0-0.1,0-0.2,0-0.2
	v-73c-0.1-0.5,0.3-1,0.9-1.1c0.1,0,0.1,0,0.2,0L353.5,293.6z"/>
<path class="st0" d="M464.1,294.7v-1.1h2.2v73h42v2.2h-43.1c-0.5,0.1-1-0.3-1.1-0.9c0-0.1,0-0.2,0-0.2V294.7z"/>
<path class="st0" d="M537,368.2l-0.2,0.7h-2.4l0.7-1.5l32.1-73c0.3-0.6,1-0.7,1.6-0.4c0.2,0.1,0.3,0.3,0.4,0.4l32.1,73l0.7,1.5h-2.5
	l-0.2-0.7l-31.1-70.7L537,368.2z"/>
<path class="st0" d="M638.9,367.7v1.1h-2.2v-74.1c0.1-0.6,0.6-1.1,1.2-1c0.4,0,0.7,0.3,0.9,0.6l32.2,26.6l32.1-26.6
	c0.3-0.5,1-0.7,1.5-0.4c0.3,0.2,0.5,0.5,0.6,0.9l0.1,73v1.1h-2.2v-1.1l-0.1-67.9l-31,24.1c-0.3,0.6-1,0.8-1.5,0.5
	c-0.2-0.1-0.3-0.3-0.5-0.5l-31.1-24.1V367.7z"/>
<path class="st0" d="M745.1,331.2c0-20.9,15-37.6,33.2-37.6s33.2,16.7,33.2,37.6s-14.9,37.6-33.2,37.6S745.1,352.1,745.1,331.2z
	 M747.3,331.2c0,19.6,13.9,35.4,31,35.4s31-15.8,31-35.4s-13.8-35.4-31-35.4S747.3,311.6,747.3,331.2L747.3,331.2z"/>
<path class="st0" d="M849.1,294.7v-1h2.4l-0.1,1.1l-0.1,50.1c0,12,10.8,21.7,24.3,21.7s24.3-9.7,24.3-21.7v-51.2h2.4l-0.1,1.1
	l-0.1,50.1c0,13.1-11.7,23.9-26.5,23.9s-26.6-10.8-26.6-23.9L849.1,294.7z"/>
<path class="st1" d="M295.7,416.5c1.8-4.6,6.2-7.7,11.1-7.8c6.6,0,12.1,5.9,12.1,13.3s-5.5,13.3-12.2,13.3
	c-4.9-0.1-9.3-3.2-11.1-7.7V445h-1.1v-36.3h1.1L295.7,416.5L295.7,416.5z M295.7,422c0,6.7,5,12.2,11.1,12.2s11.1-5.4,11.1-12.2
	s-4.9-12.2-11-12.2S295.8,415.1,295.7,422L295.7,422z"/>
<path class="st1" d="M345.4,422c0-7.4,5.2-13.3,11.5-13.3c4.3,0,8.1,3,10,7.5v-7.5h1.1v26.5h-1.1v-7.5c-1.8,4.5-5.6,7.5-10,7.5
	C350.6,435.2,345.4,429.4,345.4,422z M346.5,422c0,6.7,4.6,12.2,10.4,12.2c5.5,0,10-5.5,10-12.2s-4.5-12.2-10-12.2
	C351.2,409.8,346.5,415.2,346.5,422z"/>
<path class="st1" d="M401.6,409.8v18.5c0.1,3.9,2.9,5.9,7.9,5.9h0.5v1.1h-0.5c-5.8,0-8.9-2.5-9-7v-18.4h-4.9v-1.1h4.9v-6.4h1.1v6.4
	h8.4v1.1H401.6L401.6,409.8z"/>
<path class="st1" d="M438.8,403.6h-0.6v-1.1h1.2v1.1H438.8L438.8,403.6z M438.3,409.2v-0.6h1.1v26.5h-1.1V409.2L438.3,409.2z"/>
<path class="st1" d="M488.3,415.5h-1.1c0-3.3-3.8-5.8-8.2-5.8s-8.2,2.5-8.2,5.8c0,6.3,18.5,5.4,18.5,12.8c0,3.7-4.4,6.9-10.3,6.9
	s-10.3-3.1-10.3-6.9h1.1c0,3.3,4.3,5.8,9.2,5.8s9.2-2.5,9.2-5.8c0-6.3-18.4-5.3-18.5-12.8c0-3.7,4-6.9,9.3-6.9
	S488.3,411.8,488.3,415.5z"/>
<path class="st1" d="M535.4,415.5h-1.1c0-3.3-3.8-5.8-8.2-5.8s-8.2,2.5-8.2,5.8c0,6.3,18.5,5.4,18.5,12.8c0,3.7-4.4,6.9-10.3,6.9
	s-10.3-3.1-10.3-6.9h1.1c0,3.3,4.3,5.8,9.2,5.8s9.2-2.5,9.2-5.8c0-6.3-18.4-5.3-18.5-12.8c0-3.7,4-6.9,9.3-6.9
	S535.4,411.8,535.4,415.5z"/>
<path class="st1" d="M584.8,429.2l0.9,0.7c-2.4,3.5-6.4,5.5-10.6,5.4c-6.7,0-12.2-5.9-12.2-13.3s5.4-13.3,12.2-13.3
	s12.2,5.9,12.2,13.3v0.5h-23.2c0.3,6.5,5,11.6,11,11.6C579,434.2,582.7,432.4,584.8,429.2z M564.1,421.4h22.1
	c0-6.2-4.9-11.6-11.1-11.6S564.3,414.9,564.1,421.4z"/>
<path class="st1" d="M617.2,415.9c2-4.7,6.4-7.2,12-7.2h0.5v1.1h-0.5c-7,0-12,4.2-12,11.9v13.5H616v-26.5h1.1V415.9L617.2,415.9z"/>
<path class="st1" d="M658,403.6h-0.6v-1.1h1.2v1.1H658z M657.4,409.2v-0.6h1.1v26.5h-1.1V409.2L657.4,409.2z"/>
<path class="st1" d="M709.8,429.2l0.9,0.7c-2.4,3.5-6.4,5.5-10.6,5.4c-6.8,0-12.2-5.9-12.2-13.3s5.4-13.3,12.2-13.3
	s12.2,5.9,12.2,13.3v0.5H689c0.2,6.5,5,11.6,11,11.6C703.9,434.3,707.6,432.4,709.8,429.2z M689,421.4h22.1
	c0-6.2-4.9-11.6-11.1-11.6S689.2,414.9,689,421.4z"/>
<path class="st0" d="M946.5,332.3v36.5h-2.2v-1.1v-35.5l0,0v-1l0.1-36.4c-0.1-0.5,0.3-1,0.9-1.1c0.1,0,0.1,0,0.2,0l32.1-0.1
	c12.2,0,22,8.7,22,19.5c0,9.7-8.2,17.7-18.8,19.1c6.6,5,11.4,11.5,18.8,35.3l0.4,1.4h-2.3l-0.3-0.8c-7.8-25.4-12.6-30.6-20.2-35.7
	H969v-2.2h5h3.7c10.7,0,19.7-7.5,19.7-17s-9-17.3-19.8-17.3h-31.1V332.3L946.5,332.3z"/>
<path class="st2" d="M614.6,220.4l2,0.7l-0.1,7.4l-4.7-2.1L391.3,126.1c-2.3-1-2.3-5.1,0.1-6l223.1-94.6l4.7-2l-0.1,7.4l-2,0.6
	l-216,91.6L614.6,220.4z"/>
<path class="st2" d="M482.1,3.4V0h6.7v221.8h127.7v6.7H485.5c-1.8,0.1-3.3-1.2-3.4-3c0-0.1,0-0.2,0-0.4V3.4z"/>
</svg>
